<svg xmlns="http://www.w3.org/2000/svg" viewBox="3741.944 559.935 26.063 39.244">
  <defs>
    <style>
      .cls-1 {
        fill: #fff;
      }

      .cls-2, .cls-3 {
        stroke: none;
      }

      .cls-3 {
        fill: #38b1c2;
      }
    </style>
  </defs>
  <g id="Pfad_57" data-name="Pfad 57" class="cls-1" transform="translate(3741.379 569.183) rotate(-21)">
    <path class="cls-2" d="M 9.156733512878418 32.423583984375 C 7.760323524475098 32.423583984375 6.08414363861084 30.34701347351074 4.782323360443115 27.00424385070801 C 3.374233484268188 23.38862228393555 2.566653490066528 18.85371398925781 2.566653490066528 14.56231307983398 C 2.566653490066528 10.70133304595947 3.56394362449646 6.194433212280273 5.302793502807617 2.197213172912598 C 6.00934362411499 0.5730231404304504 6.81092357635498 -0.8858268260955811 7.559873580932617 -1.91059684753418 C 8.36833381652832 -3.016796827316284 8.889543533325195 -3.30907678604126 9.052193641662598 -3.30907678604126 C 9.056763648986816 -3.30907678604126 9.058653831481934 -3.308716773986816 9.058673858642578 -3.308716773986816 C 9.110513687133789 -3.298346757888794 9.593193054199219 -3.167386770248413 10.56520366668701 -1.780696868896484 C 11.29708385467529 -0.7365868091583252 12.07013320922852 0.7026931643486023 12.741943359375 2.27202320098877 C 13.72831344604492 4.57615327835083 15.38305377960205 9.236753463745117 15.38305377960205 14.56231307983398 C 15.38305377960205 18.90878295898438 14.64028358459473 23.44763374328613 13.34519386291504 27.01507377624512 C 12.11574363708496 30.40171241760254 10.54996395111084 32.423583984375 9.156733512878418 32.423583984375 Z"/>
    <path class="cls-3" d="M 9.156733512878418 31.923583984375 C 10.02149391174316 31.923583984375 11.51423358917236 30.5933723449707 12.87520313262939 26.84445381164551 C 14.15122318267822 23.32955360412598 14.88305377960205 18.85288238525391 14.88305377960205 14.56231307983398 C 14.88305377960205 9.447353363037109 13.31676387786865 4.939113140106201 12.38311386108398 2.707043170928955 C 11.73692321777344 1.162203192710876 11.01659393310547 -0.2177068293094635 10.30001354217529 -1.28352677822113 C 9.682037353515625 -2.202674388885498 9.240983963012695 -2.618744373321533 9.032796859741211 -2.765951633453369 C 8.821435928344727 -2.628616571426392 8.364306449890137 -2.218114376068115 7.721383571624756 -1.271476864814758 C 6.993063449859619 -0.1991068422794342 6.256923675537109 1.206003189086914 5.592543601989746 2.791933059692383 C 4.649203300476074 5.043773174285889 3.066653490066528 9.567293167114258 3.066653490066528 14.56231307983398 C 3.066653490066528 18.79402351379395 3.861813545227051 23.26279258728027 5.248233318328857 26.82279396057129 C 5.885253429412842 28.45850372314453 6.616793632507324 29.80271339416504 7.363763332366943 30.71010398864746 C 8.007943153381348 31.49263381958008 8.644693374633789 31.923583984375 9.156733512878418 31.923583984375 M 9.156733512878418 32.923583984375 C 5.702633380889893 32.923583984375 2.066653490066528 23.74296379089355 2.066653490066528 14.56231307983398 C 2.066653490066528 5.552017211914063 7.145194530487061 -3.809078216552734 9.05219554901123 -3.809078216552734 C 9.088248252868652 -3.809078216552734 9.123003959655762 -3.805753231048584 9.156733512878418 -3.799006938934326 C 10.97461318969727 -3.435426950454712 15.88305377960205 5.381673336029053 15.88305377960205 14.56231307983398 C 15.88305377960205 23.74296379089355 12.61084365844727 32.923583984375 9.156733512878418 32.923583984375 Z"/>
  </g>
</svg>
